<svg width="30" height="30" viewBox="0 0 30 30" fill="none" xmlns="http://www.w3.org/2000/svg">
<path d="M13.6049 0.0333424C12.3269 0.156528 10.9198 0.48502 9.68284 0.948431C8.65103 1.32972 6.76329 2.34453 6.39394 2.71409C6.19462 2.91353 6.21221 3.27722 6.43498 3.50013C6.71052 3.77583 6.87467 3.73476 7.78337 3.18923C9.91148 1.91045 12.0455 1.2652 14.4726 1.16547C19.3092 0.971897 23.8526 3.31241 26.5611 7.39513C27.6457 9.03173 28.3844 10.9792 28.6951 13.0265C28.8475 14.0061 28.8475 15.977 28.6951 16.9566C28.2672 19.7958 27.0653 22.3123 25.1483 24.3888C24.4858 25.1103 24.4682 25.2805 24.9783 25.8201L25.2772 26.1369H23.3895H21.5076V24.2187V22.3005L21.877 22.6584C22.0763 22.8519 22.2991 23.0338 22.3694 23.0514C22.5746 23.1159 22.8619 22.9517 23.2195 22.5645C24.4389 21.2505 25.3828 19.5201 25.8166 17.8189C26.0687 16.8041 26.1566 16.1061 26.1566 14.9916C26.1566 13.4605 25.928 12.2287 25.3945 10.8854C23.413 5.85824 18.0839 2.96046 12.8017 4.02806C8.18789 4.96662 4.6469 8.69737 3.93753 13.3784C3.82028 14.1703 3.80856 15.6896 3.91408 16.458C4.47689 20.5114 7.12676 23.902 10.8964 25.3919C12.2389 25.9257 13.4701 26.1545 15.0002 26.1545C16.8 26.1545 18.3946 25.7908 19.8661 25.0517C20.0889 24.9402 20.2882 24.8464 20.3058 24.8464C20.3234 24.8464 20.3351 25.3215 20.3351 25.8964C20.3351 26.9229 20.341 26.9581 20.4758 27.1165C20.5813 27.2397 20.681 27.2866 20.9272 27.3101L21.2438 27.3453L20.8041 27.5564C19.7078 28.0727 18.3184 28.4891 16.9935 28.6944C16.0437 28.8411 14.0094 28.8411 13.0362 28.6944C9.60077 28.1724 6.57568 26.483 4.37722 23.8492C0.543111 19.2737 0.109282 12.6921 3.29851 7.60044C3.74993 6.88479 3.78511 6.69121 3.51543 6.42138C3.29265 6.19847 2.92917 6.18087 2.72985 6.38031C2.37809 6.73227 1.41077 8.51552 1.02384 9.51274C-0.752514 14.1175 -0.195571 19.2913 2.52466 23.333C7.06228 30.0964 16.1082 32.0204 23.0084 27.6855L23.6064 27.3101H25.2948H26.9833L27.1474 27.1517C27.2764 27.0285 27.3116 26.9405 27.3116 26.7352C27.3116 26.4888 27.2881 26.4536 26.6784 25.8319L26.0394 25.1807L26.526 24.6C30.3659 20.0011 31.0929 13.4899 28.3551 8.1401C26.7722 5.04287 23.9289 2.41492 20.7748 1.13028C19.5319 0.61994 18.4591 0.326641 17.1107 0.121332C16.3779 0.00987816 14.3729 -0.0370483 13.6049 0.0333424ZM16.7238 5.13673C20.851 5.84065 24.1106 9.10212 24.861 13.2787C25.031 14.2466 25.031 15.7424 24.8551 16.7161C24.7086 17.5432 24.3685 18.5991 23.9992 19.3617C23.7237 19.9366 23.0788 20.9455 22.7094 21.3737L22.4925 21.626L21.8301 20.9748C21.1969 20.3648 21.15 20.3296 20.9214 20.3296C20.7279 20.3296 20.64 20.3648 20.5051 20.4997L20.3351 20.6698V22.0718V23.4737L19.8544 23.7436C18.9222 24.2656 17.8083 24.6587 16.7003 24.8581C15.7506 25.0282 14.2439 25.0282 13.2883 24.8581C9.11417 24.1073 5.88976 20.881 5.14522 16.7044C4.96934 15.7365 4.96934 14.2407 5.14522 13.267C5.79596 9.63592 8.39308 6.63255 11.8696 5.49455C13.4701 4.96662 15.0588 4.8493 16.7238 5.13673Z" fill="#078FF8"/>
<path d="M10.7968 11.6834C10.6795 11.7421 10.5623 11.8711 10.4919 12.0236C10.2809 12.4694 8.31689 17.6843 8.31689 17.8016C8.31689 18.0011 8.45173 18.224 8.61589 18.3119C9.04971 18.5349 9.33698 18.3119 9.62425 17.5435L9.82357 17.0156L11.1133 16.998L12.4031 16.9862L12.6259 17.567C12.7431 17.8896 12.8897 18.1946 12.9483 18.2474C13.0069 18.3002 13.1594 18.3589 13.2825 18.3765C13.4701 18.3999 13.5463 18.3765 13.6929 18.2533C13.7925 18.1653 13.8922 18.0245 13.9156 17.9307C13.9684 17.6843 11.8403 12.0412 11.6058 11.8066C11.4006 11.5954 11.0606 11.5485 10.7968 11.6834ZM11.5296 14.6692C11.723 15.1854 11.8989 15.6547 11.9224 15.7075C11.9634 15.8072 11.8989 15.813 11.1309 15.813C10.4919 15.813 10.3043 15.7955 10.3219 15.7368C10.5916 14.9683 11.1133 13.6602 11.1426 13.6896C11.1661 13.713 11.342 14.153 11.5296 14.6692Z" fill="#078FF8"/>
<path d="M15.5161 11.6836C15.4281 11.7306 15.3285 11.8185 15.2933 11.8831C15.2581 11.9535 15.2347 13.0621 15.2347 15.0038C15.2347 18.2946 15.2229 18.1831 15.5747 18.3298C15.6919 18.3826 16.0261 18.3943 16.6065 18.3826C17.4507 18.365 17.4624 18.365 17.6207 18.2007C17.8611 17.9661 17.8494 17.62 17.5914 17.3912C17.4155 17.2328 17.3686 17.2211 16.9055 17.2211H16.413L16.3955 14.5756L16.3779 11.93L16.1844 11.7599C15.9733 11.5722 15.7623 11.5428 15.5161 11.6836Z" fill="#078FF8"/>
<path d="M19.3033 11.789L19.104 11.9884V14.9918V17.9952L19.3033 18.1946L19.5027 18.394H20.3586C21.3025 18.394 21.4901 18.3471 21.6132 18.0714C21.748 17.7723 21.6542 17.4438 21.3845 17.303C21.279 17.2502 21.0445 17.2209 20.7455 17.2209H20.2765V14.6398C20.2765 11.8711 20.2707 11.8242 19.9775 11.6716C19.7137 11.5367 19.5202 11.5719 19.3033 11.789Z" fill="#078FF8"/>
<path d="M4.41256 4.39783C4.19565 4.61487 4.16047 4.80845 4.29531 5.07242C4.38325 5.23666 4.60603 5.37158 4.79949 5.37158C5.09848 5.37158 5.38575 5.08415 5.38575 4.79085C5.38575 4.59141 5.25091 4.3685 5.08676 4.28051C4.82294 4.1456 4.62948 4.18079 4.41256 4.39783Z" fill="#078FF8"/>
</svg>
