<svg width="36" height="36" viewBox="0 0 36 36" fill="none" xmlns="http://www.w3.org/2000/svg">
<g id="gg:dark-mode">
<g id="Group">
<path id="Vector" d="M21.8891 21.8891C20.9762 22.802 19.7753 23.3609 18.5 23.4772V12.5228C19.7753 12.6391 20.9762 13.198 21.8891 14.1109C22.9205 15.1424 23.5 16.5413 23.5 18C23.5 19.4587 22.9205 20.8576 21.8891 21.8891Z" fill="#71B5E7" stroke="#0C7DD3"/>
<path id="Vector_2" d="M18 5.5H17.5V6V11.5192C15.959 11.6381 14.5044 12.3032 13.4038 13.4038C12.1848 14.6228 11.5 16.2761 11.5 18C11.5 19.7239 12.1848 21.3772 13.4038 22.5962C14.5044 23.6968 15.959 24.3619 17.5 24.4808V30V30.5H18C21.3152 30.5 24.4946 29.183 26.8388 26.8388C29.183 24.4946 30.5 21.3152 30.5 18C30.5 14.6848 29.183 11.5054 26.8388 9.16117C24.4946 6.81696 21.3152 5.5 18 5.5ZM3.5 18C3.5 9.99164 9.99164 3.5 18 3.5C26.0084 3.5 32.5 9.99164 32.5 18C32.5 26.0084 26.0084 32.5 18 32.5C9.99164 32.5 3.5 26.0084 3.5 18Z" fill="#71B5E7" stroke="#0C7DD3"/>
</g>
</g>
</svg>
