<svg width="28" height="31" viewBox="0 0 28 31" fill="none" xmlns="http://www.w3.org/2000/svg">
<path d="M14.1088 0.00825882C14.032 0.0118084 13.8258 0.0260067 13.6496 0.040205C10.0621 0.34902 7.02565 2.4628 6.00038 5.36636C5.85043 5.79231 5.73984 6.25198 5.68361 6.6797L5.67237 6.77022L5.52429 6.78264C4.90576 6.83056 4.37344 7.17665 4.16913 7.66294C4.07916 7.87769 4.07916 7.91496 4.08479 10.263C4.09229 12.7087 4.08291 12.5205 4.21974 12.7832C4.38843 13.1062 4.70333 13.3494 5.12131 13.4825C5.34623 13.5535 5.56178 13.5783 5.88417 13.5695C6.13721 13.5641 6.1597 13.5606 6.29653 13.5056C6.44648 13.4434 6.55331 13.3547 6.62454 13.234C6.6564 13.1754 6.65828 13.037 6.66952 10.0944C6.67702 7.86704 6.68639 6.97255 6.70139 6.86428C6.87758 5.67517 7.29743 4.74163 8.09216 3.78147C8.30771 3.52057 8.90751 2.95441 9.21677 2.72192C9.47731 2.52314 9.98713 2.19481 10.2645 2.04572C11.8559 1.19027 13.8089 0.837088 15.7114 1.06249C18.6242 1.4068 21.0758 3.08575 22.043 5.40008C22.2211 5.8278 22.341 6.25198 22.4104 6.71343C22.4478 6.9548 22.4478 7.05419 22.4497 10.3784C22.4535 13.3991 22.4497 13.8321 22.4216 14.1143C22.3879 14.4746 22.3391 14.8154 22.2717 15.1863C22.2454 15.3247 22.2248 15.4401 22.2248 15.4436C22.2248 15.4472 22.1929 15.4561 22.1554 15.4632C21.9043 15.5075 21.5894 15.6815 21.3795 15.8944C21.1789 16.0968 21.0739 16.2778 20.9933 16.5564C20.9465 16.7179 20.9484 17.1031 20.9952 17.2734C21.1171 17.7154 21.4413 18.0792 21.8762 18.2673C22.4535 18.5176 23.1395 18.4058 23.6043 17.9869C23.8517 17.7668 24.0129 17.4829 24.071 17.1687C24.1067 16.9717 24.1067 16.8493 24.071 16.654C23.9979 16.2583 23.7487 15.8927 23.4038 15.6761C23.3325 15.63 23.2744 15.5838 23.2744 15.5732C23.2744 15.5625 23.2988 15.4081 23.3307 15.2324C23.4094 14.7834 23.4375 14.5598 23.4712 14.1321C23.52 13.5198 23.5087 13.5765 23.5893 13.5641C24.0673 13.5002 24.3597 13.3831 24.6258 13.1506C24.7889 13.0086 24.9145 12.8294 24.9876 12.6341L25.0457 12.4815L25.0513 10.2275C25.057 7.72683 25.0626 7.84397 24.9332 7.58307C24.7177 7.14115 24.206 6.83056 23.6137 6.77909L23.4712 6.76667L23.4413 6.56079C22.9914 3.56849 20.446 1.09088 16.986 0.279802C16.0544 0.0597286 15.0966 -0.0290108 14.1088 0.00825882Z" fill="#078FF8"/>
<path d="M13.9756 2.14343C12.2418 2.25169 10.8998 2.77703 9.9476 3.71767C9.18286 4.47196 8.69178 5.47117 8.50434 6.64253C8.46311 6.89987 8.45748 7.0667 8.41812 9.30827L8.40688 9.98801H8.33753C8.24568 9.98801 8.09198 10.059 8.02638 10.1318C7.88581 10.2915 7.81833 10.5506 7.79396 11.044C7.7546 11.8427 7.87643 12.4621 8.22319 13.2306C8.4931 13.8233 8.96169 14.5084 9.39466 14.9379C9.49775 15.0391 9.53711 15.0923 9.55398 15.1527C9.67582 15.5875 9.9251 16.1696 10.165 16.576C11.0535 18.0882 12.4705 19.0785 14.0618 19.2986C14.834 19.4051 15.6962 19.256 16.5172 18.8709C17.7168 18.31 18.6765 17.309 19.2725 15.9939C19.3587 15.804 19.6005 15.142 19.6005 15.0959C19.6005 15.0817 19.6474 15.0284 19.7055 14.9752C19.8498 14.8403 20.0954 14.5563 20.2678 14.3256C20.8039 13.6015 21.1994 12.7034 21.3137 11.9492C21.3793 11.5143 21.368 10.8896 21.2893 10.5276C21.2143 10.1815 21.0344 9.98801 20.787 9.98801H20.7289L20.7176 9.03318C20.6952 7.43764 20.6764 6.88745 20.6333 6.61946C20.4759 5.66107 20.131 4.85354 19.5668 4.1312C19.3719 3.88095 18.8939 3.42661 18.6409 3.24735C17.7655 2.62795 16.7403 2.28186 15.4207 2.16118C15.1489 2.13633 14.2624 2.12568 13.9756 2.14343Z" fill="#078FF8"/>
<path d="M8.98938 18.8505C8.5985 19.0434 7.96152 19.3203 7.17977 19.6347C5.53483 20.2956 5.17291 20.451 4.55583 20.7529C4.0419 21.0065 3.76865 21.1602 3.39768 21.4031C2.5924 21.9319 2.11286 22.4195 1.50664 23.3234C0.697739 24.531 0.221811 25.7421 0.0607554 27.0211C-0.0116291 27.5856 -0.0206772 28.4019 0.0408496 28.6627C0.125901 29.0146 0.435345 29.3076 0.929369 29.5023C1.35644 29.672 1.72379 29.7488 3.30177 30.006C8.62746 30.8688 12.576 31.1421 16.6531 30.9331C17.5289 30.8885 19.3983 30.7384 19.4254 30.7116C19.4326 30.7045 19.4164 30.633 19.3892 30.5526C19.0436 29.4969 18.9694 28.2143 19.1865 27.0497C19.4688 25.5438 20.2832 24.0862 21.4196 23.0608C22.0674 22.4749 22.766 22.0283 23.5676 21.6871C23.7739 21.5996 24.4037 21.387 24.5213 21.3674C24.5575 21.3602 24.5882 21.3477 24.5882 21.3388C24.5882 21.3192 24.1449 21.0583 23.8463 20.9047C23.193 20.5671 22.7171 20.3599 21.3002 19.7883C20.0497 19.2845 19.5828 19.0845 19.0798 18.8362C18.9422 18.7683 18.8282 18.7147 18.8246 18.7183C18.8228 18.7218 18.774 18.9451 18.7179 19.2149C18.4862 20.3242 18.2148 21.446 18.0012 22.1891C17.2521 24.7918 16.2333 26.8032 14.6082 28.8878C14.1685 29.4523 14.0418 29.4951 13.7396 29.179C13.4085 28.8342 12.5977 27.6999 12.1399 26.9407C10.8569 24.8203 10.1294 22.7857 9.39654 19.2774C9.27349 18.6808 9.28073 18.7147 9.26444 18.7165C9.2572 18.7183 9.13415 18.7772 8.98938 18.8505Z" fill="#078FF8"/>
<path d="M19.0966 18.7325C19.4838 18.9273 20.1147 19.2069 20.8889 19.5243C22.5181 20.1917 22.8766 20.3486 23.4878 20.6534C23.9968 20.9095 24.2674 21.0646 24.6348 21.3099C25.4324 21.8438 25.9074 22.3362 26.5078 23.2489C27.3089 24.4681 27.7803 25.691 27.9398 26.9825C28.0115 27.5524 28.0205 28.3767 27.9595 28.64C27.8753 28.9953 27.5688 29.2911 27.0795 29.4877C26.6565 29.6591 26.2927 29.7366 24.7298 29.9964C19.4551 30.8675 15.5443 31.1435 11.5063 30.9325C10.6388 30.8874 8.78736 30.7359 8.76048 30.7088C8.75331 30.7016 8.76944 30.6295 8.79632 30.5483C9.13865 29.4823 9.21214 28.1873 8.99706 27.0113C8.71746 25.4908 7.91093 24.019 6.78537 22.9837C6.14372 22.3921 5.4519 21.9412 4.65791 21.5967C4.45359 21.5083 3.82987 21.2937 3.71337 21.2739C3.67753 21.2666 3.64706 21.254 3.64706 21.245C3.64706 21.2252 4.08617 20.9618 4.3819 20.8067C5.02892 20.4658 5.50029 20.2566 6.90366 19.6794C8.14213 19.1708 8.60455 18.9688 9.10281 18.7181C9.23902 18.6495 9.35193 18.5954 9.35552 18.599C9.35731 18.6026 9.4057 18.8281 9.46126 19.1004C9.69068 20.2205 9.95952 21.3532 10.171 22.1035C10.913 24.7315 11.9221 26.7624 13.5316 28.8673C13.9671 29.4372 14.0926 29.4805 14.3919 29.1613C14.7199 28.8132 15.5228 27.6678 15.9763 26.9013C17.247 24.7603 17.9675 22.706 18.6934 19.1636C18.8153 18.5612 18.8081 18.5954 18.8242 18.5972C18.8314 18.599 18.9533 18.6585 19.0966 18.7325Z" fill="#078FF8"/>
<path d="M13.2148 20.9026C13.1492 20.9399 13.0967 21.0197 13.0967 21.0836C13.0948 21.1635 13.4772 22.972 13.5034 23.0111C13.5184 23.0341 13.5559 23.0678 13.5896 23.0856C13.6477 23.1193 13.6909 23.1211 14.5681 23.1211C15.4453 23.1211 15.4884 23.1193 15.5465 23.0856C15.5802 23.0678 15.6177 23.0341 15.6327 23.0111C15.6608 22.9702 16.0394 21.1759 16.0394 21.089C16.0394 21.0197 15.9888 20.9416 15.9213 20.9026C15.8632 20.8689 15.8183 20.8671 14.5681 20.8671C13.3179 20.8671 13.2729 20.8689 13.2148 20.9026Z" fill="#078FF8"/>
<path d="M13.6963 23.5955C13.6288 23.615 13.5819 23.6452 13.5557 23.6825C13.5407 23.7056 13.4226 24.1617 13.2933 24.6977L13.0571 25.672L13.2333 26.0163C13.4339 26.4103 13.7731 27.0262 14.0243 27.4521C14.2586 27.8479 14.5191 28.2721 14.5491 28.3005C14.5679 28.32 14.6147 28.2561 14.7965 27.9633C15.1452 27.406 15.4301 26.9126 15.7712 26.2701L16.0842 25.6827L15.8462 24.6994C15.6531 23.9097 15.5988 23.7091 15.565 23.6736C15.4769 23.5849 15.4638 23.5831 14.5641 23.5849C14.103 23.5849 13.7113 23.5902 13.6963 23.5955Z" fill="#078FF8"/>
</svg>
