<svg width="34" height="37" viewBox="0 0 34 37" fill="none" xmlns="http://www.w3.org/2000/svg">
<g clip-path="url(#clip0_3583_15081)">
<path d="M13.7048 0.141331C13.6308 0.145 13.4322 0.159683 13.2625 0.174366C9.80649 0.493711 6.88137 2.67957 5.89369 5.68215C5.74924 6.12263 5.64271 6.59798 5.58854 7.04029L5.57771 7.13389L5.43506 7.14674C4.8392 7.19629 4.3264 7.55418 4.12959 8.05705C4.04292 8.27913 4.04292 8.31767 4.04834 10.7458C4.05556 13.2749 4.04653 13.0803 4.17834 13.3519C4.34085 13.686 4.64419 13.9374 5.04685 14.0751C5.26353 14.1485 5.47117 14.1742 5.78174 14.165C6.0255 14.1595 6.04717 14.1558 6.17898 14.0989C6.32343 14.0347 6.42635 13.9429 6.49496 13.8181C6.52566 13.7575 6.52747 13.6144 6.5383 10.5714C6.54552 8.26812 6.55455 7.34311 6.569 7.23116C6.73872 6.0015 7.14319 5.03612 7.90877 4.04321C8.11642 3.77342 8.69422 3.18796 8.99215 2.94753C9.24313 2.74197 9.73426 2.40244 10.0015 2.24827C11.5345 1.36365 13.4159 0.998423 15.2487 1.23151C18.0546 1.58756 20.4164 3.32377 21.3481 5.71702C21.5196 6.15934 21.6352 6.59798 21.702 7.07516C21.7381 7.32476 21.7381 7.42754 21.7399 10.8651C21.7435 13.9888 21.7399 14.4366 21.7128 14.7284C21.6803 15.101 21.6334 15.4534 21.5684 15.837C21.5431 15.9801 21.5232 16.0994 21.5232 16.1031C21.5232 16.1068 21.4925 16.1159 21.4564 16.1233C21.2145 16.1692 20.9111 16.349 20.7089 16.5693C20.5157 16.7785 20.4146 16.9657 20.3369 17.2538C20.2918 17.4208 20.2936 17.8191 20.3387 17.9953C20.4561 18.4523 20.7685 18.8285 21.1874 19.0231C21.7435 19.2819 22.4044 19.1662 22.8522 18.7331C23.0905 18.5055 23.2458 18.2119 23.3018 17.887C23.3361 17.6833 23.3361 17.5567 23.3018 17.3548C23.2313 16.9455 22.9912 16.5674 22.659 16.3435C22.5903 16.2958 22.5344 16.2481 22.5344 16.2371C22.5344 16.2261 22.5578 16.0664 22.5885 15.8847C22.6644 15.4203 22.6915 15.1891 22.724 14.7468C22.7709 14.1136 22.7601 14.1723 22.8377 14.1595C23.2982 14.0934 23.5798 13.9723 23.8362 13.7319C23.9933 13.585 24.1143 13.3997 24.1847 13.1978L24.2407 13.0399L24.2461 10.7091C24.2515 8.12313 24.2569 8.24426 24.1324 7.97446C23.9247 7.51747 23.4318 7.19629 22.8612 7.14307L22.724 7.13022L22.6951 6.91732C22.2617 3.82298 19.8097 1.26087 16.4765 0.422134C15.5791 0.194553 14.6564 0.102789 13.7048 0.141331Z" fill="#078FF8"/>
<path d="M13.5765 2.34925C11.9063 2.4612 10.6135 3.00445 9.69625 3.97717C8.95955 4.75718 8.48648 5.79047 8.30592 7.00178C8.26619 7.2679 8.26078 7.44042 8.22286 9.75842L8.21202 10.4614H8.14522C8.05674 10.4614 7.90868 10.5348 7.84548 10.61C7.71006 10.7752 7.64506 11.0431 7.62158 11.5534C7.58366 12.3793 7.70103 13.0198 8.03507 13.8145C8.29508 14.4275 8.74649 15.1359 9.16359 15.5801C9.2629 15.6847 9.30082 15.7397 9.31707 15.8021C9.43443 16.2518 9.67458 16.8538 9.9057 17.274C10.7616 18.8377 12.1266 19.8618 13.6596 20.0894C14.4035 20.1995 15.2341 20.0454 16.025 19.6471C17.1806 19.0672 18.1051 18.032 18.6793 16.6721C18.7623 16.4757 18.9952 15.7911 18.9952 15.7434C18.9952 15.7287 19.0404 15.6737 19.0964 15.6186C19.2354 15.4791 19.4719 15.1855 19.638 14.9469C20.1545 14.1981 20.5354 13.2694 20.6456 12.4894C20.7088 12.0397 20.6979 11.3937 20.6221 11.0193C20.5499 10.6614 20.3765 10.4614 20.1382 10.4614H20.0822L20.0714 9.47395C20.0497 7.824 20.0317 7.25505 19.9901 6.97792C19.8385 5.98685 19.5062 5.15178 18.9627 4.4048C18.775 4.14602 18.3145 3.67618 18.0708 3.49081C17.2275 2.85029 16.2399 2.4924 14.9687 2.3676C14.7069 2.3419 13.8528 2.33089 13.5765 2.34925Z" fill="#078FF8"/>
<path d="M9.10046 19.6857C8.71044 19.8839 8.07486 20.1684 7.29483 20.4914C5.65351 21.1704 5.29238 21.3301 4.67666 21.6403C4.16387 21.9009 3.89122 22.0587 3.52106 22.3083C2.71756 22.8516 2.23906 23.3526 1.63418 24.2813C0.827062 25.522 0.352182 26.7663 0.191481 28.0804C0.119256 28.6604 0.110228 29.4991 0.171619 29.7671C0.256484 30.1286 0.565246 30.4296 1.05818 30.6297C1.48431 30.804 1.85085 30.8829 3.42536 31.1472C8.73933 32.0337 12.6792 32.3145 16.7473 32.0998C17.6212 32.0539 19.4864 31.8997 19.5135 31.8722C19.5207 31.8648 19.5045 31.7914 19.4774 31.7088C19.1325 30.6242 19.0585 29.3064 19.2752 28.1098C19.5569 26.5626 20.3694 25.065 21.5033 24.0115C22.1497 23.4095 22.8467 22.9507 23.6466 22.6001C23.8524 22.5102 24.4808 22.2918 24.5982 22.2716C24.6343 22.2643 24.665 22.2514 24.665 22.2423C24.665 22.2221 24.2226 21.9541 23.9247 21.7963C23.2728 21.4494 22.798 21.2365 21.3842 20.6492C20.1365 20.1316 19.6706 19.9261 19.1686 19.671C19.0314 19.6012 18.9177 19.5462 18.9141 19.5498C18.9122 19.5535 18.8635 19.7829 18.8075 20.0601C18.5764 21.1998 18.3056 22.3524 18.0925 23.1159C17.345 25.7899 16.3284 27.8565 14.7069 29.9983C14.2682 30.5783 14.1418 30.6223 13.8402 30.2975C13.5098 29.9433 12.7009 28.7778 12.2441 27.9978C10.9639 25.8193 10.238 23.7289 9.50672 20.1243C9.38394 19.5113 9.39116 19.5462 9.37491 19.548C9.36769 19.5498 9.24491 19.6104 9.10046 19.6857Z" fill="#078FF8"/>
<path d="M12.8437 21.7488C12.7805 21.7874 12.73 21.87 12.73 21.936C12.7282 22.0186 13.0965 23.8888 13.1218 23.9292C13.1363 23.953 13.1724 23.9879 13.2049 24.0063C13.2608 24.0411 13.3024 24.043 14.1474 24.043C14.9924 24.043 15.034 24.0411 15.0899 24.0063C15.1224 23.9879 15.1586 23.953 15.173 23.9292C15.2001 23.887 15.5648 22.0315 15.5648 21.9415C15.5648 21.87 15.5161 21.7892 15.4511 21.7488C15.3951 21.714 15.3518 21.7121 14.1474 21.7121C12.9431 21.7121 12.8997 21.714 12.8437 21.7488Z" fill="#078FF8"/>
<path d="M26.588 22.714C24.3905 22.8315 22.4422 23.9253 21.1855 25.7496C20.5499 26.671 20.1671 27.6877 19.9956 28.899C19.9577 29.1762 19.9414 30.0443 19.9685 30.3801C20.2358 33.5901 22.6264 36.2238 25.7483 36.7505C26.1889 36.8239 26.4092 36.8423 26.913 36.8423C28.0252 36.8404 29.0238 36.6037 30.0042 36.1027C32.5881 34.7886 34.0994 32.0044 33.8177 29.0807C33.6064 26.8747 32.3678 24.8834 30.4917 23.7271C29.6268 23.193 28.6572 22.8627 27.6352 22.7507C27.3734 22.7232 26.8101 22.703 26.588 22.714ZM27.6804 24.2355C28.6012 24.375 29.2747 24.7824 29.6611 25.4303C29.8724 25.7845 29.9735 26.1828 29.9735 26.6599C29.9735 27.4803 29.6774 28.141 28.9136 29.0128C28.4261 29.5726 28.2853 29.7635 28.1318 30.0791C27.9494 30.4499 27.8952 30.694 27.8808 31.1913L27.87 31.5584L26.8389 31.5639L25.8061 31.5676L25.7935 31.3345C25.7538 30.6352 25.844 30.1397 26.1167 29.5763C26.2413 29.3212 26.4562 28.9798 26.6277 28.7669C27.1694 28.0933 27.3102 27.8988 27.4348 27.6492C27.6479 27.2215 27.6551 26.8086 27.4547 26.5094C27.2723 26.2397 26.9076 26.0928 26.4237 26.0947C26.2034 26.0965 26.0643 26.1167 25.7935 26.1846C25.5172 26.2543 25.185 26.3938 24.9954 26.5223C24.9485 26.5517 24.934 26.5553 24.9268 26.5351C24.8672 26.3736 24.414 24.854 24.4194 24.8393C24.4302 24.8099 24.7968 24.6301 25.008 24.5512C25.5046 24.364 25.9397 24.2667 26.588 24.2006C26.7649 24.1823 27.4818 24.2061 27.6804 24.2355ZM27.1838 32.3458C27.7923 32.5183 28.1697 33.045 28.1751 33.7333C28.1769 33.9994 28.1372 34.1829 28.0325 34.4031C27.8609 34.7629 27.6045 34.9849 27.2199 35.1097C27.0249 35.1721 26.6403 35.1832 26.4327 35.1299C25.9578 35.007 25.6346 34.7041 25.4757 34.227C25.4251 34.0765 25.4161 34.0232 25.4089 33.8067C25.4035 33.6213 25.4089 33.5222 25.4306 33.4157C25.5443 32.856 25.9271 32.4522 26.4598 32.3292C26.6096 32.2944 27.0376 32.3035 27.1838 32.3458Z" fill="#078FF8"/>
<path d="M13.3076 24.5326C13.2426 24.5528 13.1975 24.584 13.1722 24.6225C13.1577 24.6464 13.044 25.1181 12.9194 25.6723L12.6919 26.6799L12.8616 27.036C13.0548 27.4434 13.3816 28.0803 13.6236 28.5208C13.8493 28.93 14.1003 29.3687 14.1292 29.398C14.1472 29.4182 14.1924 29.3522 14.3675 29.0493C14.7034 28.473 14.9778 27.9628 15.3064 27.2984L15.608 26.6909L15.3787 25.6742C15.1927 24.8575 15.1403 24.6501 15.1078 24.6134C15.023 24.5216 15.0103 24.5198 14.1436 24.5216C13.6994 24.5216 13.3221 24.5271 13.3076 24.5326Z" fill="#078FF8"/>
<ellipse cx="26.8035" cy="29.6615" rx="5.95" ry="6.475" fill="#078FF8"/>
<path d="M29.5085 26.5607C28.0278 24.8574 25.598 24.8574 24.1173 26.5607C22.6367 28.264 22.6367 31.0591 24.1173 32.7624C25.598 34.4657 27.9898 34.4657 29.4705 32.7624C30.9512 31.0591 30.9891 28.264 29.5085 26.5607ZM27.8759 31.4959L26.8129 30.273L25.7499 31.4959L25.2183 30.8844L26.2814 29.6615L25.2183 28.4387L25.7499 27.8272L26.8129 29.0501L27.8759 27.8272L28.4075 28.4387L27.3444 29.6615L28.4075 30.8844L27.8759 31.4959Z" fill="white"/>
</g>
<defs>
<clipPath id="clip0_3583_15081">
<rect width="34" height="37" fill="white"/>
</clipPath>
</defs>
</svg>
