<svg width="36" height="36" viewBox="0 0 36 36" fill="none" xmlns="http://www.w3.org/2000/svg">
<g id="icon-park:setting-web">
<g id="Group">
<path id="Vector" d="M18 30H5.25C4.00736 30 3 28.9927 3 27.75V8.25C3 7.00736 4.00736 6 5.25 6H30.75C31.9927 6 33 7.00736 33 8.25V17.2941" stroke="#0C7DD3" stroke-width="3" stroke-linecap="round" stroke-linejoin="round"/>
<path id="Vector_2" d="M3 8.25C3 7.00736 4.00736 6 5.25 6H30.75C31.9927 6 33 7.00736 33 8.25V15H3V8.25Z" fill="#71B5E7" stroke="#0C7DD3" stroke-width="3"/>
<path id="Vector_3" d="M6 10.5C6 9.67157 6.67157 9 7.5 9C8.32843 9 9 9.67157 9 10.5C9 11.3284 8.32843 12 7.5 12C6.67157 12 6 11.3284 6 10.5Z" fill="#0C7DD3"/>
<path id="Vector_4" d="M10.5 10.5C10.5 9.67157 11.1716 9 12 9C12.8284 9 13.5 9.67157 13.5 10.5C13.5 11.3284 12.8284 12 12 12C11.1716 12 10.5 11.3284 10.5 10.5Z" fill="#0C7DD3"/>
<path id="Vector_5" d="M27.75 27.75C28.9926 27.75 30 26.7426 30 25.5C30 24.2574 28.9926 23.25 27.75 23.25C26.5074 23.25 25.5 24.2574 25.5 25.5C25.5 26.7426 26.5074 27.75 27.75 27.75Z" stroke="#0C7DD3" stroke-width="3"/>
<path id="Vector_6" d="M27.75 30.75V27.75" stroke="#0C7DD3" stroke-width="3" stroke-linecap="round" stroke-linejoin="round"/>
<path id="Vector_7" d="M27.75 23.25V20.25" stroke="#0C7DD3" stroke-width="3" stroke-linecap="round" stroke-linejoin="round"/>
<path id="Vector_8" d="M23.2031 28.125L25.8012 26.625" stroke="#0C7DD3" stroke-width="3" stroke-linecap="round" stroke-linejoin="round"/>
<path id="Vector_9" d="M29.6992 24.375L32.2973 22.875" stroke="#0C7DD3" stroke-width="3" stroke-linecap="round" stroke-linejoin="round"/>
<path id="Vector_10" d="M23.2031 22.875L25.8012 24.375" stroke="#0C7DD3" stroke-width="3" stroke-linecap="round" stroke-linejoin="round"/>
<path id="Vector_11" d="M29.6992 26.625L32.2973 28.125" stroke="#0C7DD3" stroke-width="3" stroke-linecap="round" stroke-linejoin="round"/>
</g>
</g>
</svg>
