<svg width="36" height="36" viewBox="0 0 36 36" fill="none" xmlns="http://www.w3.org/2000/svg">
<g id="solar:calendar-date-bold">
<g id="Group">
<path id="Vector" d="M9.42739 6.76794L10.0256 6.72016V6.12V3.75C10.0256 3.62402 10.0757 3.5032 10.1648 3.41412C10.2538 3.32504 10.3747 3.275 10.5006 3.275C10.6266 3.275 10.7474 3.32504 10.8365 3.41412C10.9256 3.5032 10.9756 3.62402 10.9756 3.75V6.0195V6.68233L11.6383 6.66938C12.6282 6.65002 13.7404 6.65 15.0006 6.65H21.0006C22.2609 6.65 23.3731 6.65002 24.3629 6.66938L25.0256 6.68233V6.0195V3.75C25.0256 3.62402 25.0757 3.5032 25.1648 3.41413C25.2538 3.32504 25.3747 3.275 25.5006 3.275C25.6266 3.275 25.7474 3.32504 25.8365 3.41412C25.9256 3.5032 25.9756 3.62402 25.9756 3.75V6.1185V6.71821L26.5734 6.7664C28.6869 6.93677 29.909 7.34235 30.7827 8.21729L30.7833 8.21795C31.5566 8.9901 31.9632 10.0332 32.1649 11.725H3.83641C4.03812 10.0341 4.44476 8.99 5.21793 8.21795L5.21859 8.21729C6.09224 7.34238 7.31282 6.93681 9.42739 6.76794Z" fill="#71B5E7" stroke="#0C7DD3" stroke-width="1.3"/>
<path id="Vector_2" d="M5.21782 30.7826L5.21742 30.7822C4.47948 30.0449 4.074 29.0586 3.86395 27.4969C3.65138 25.9164 3.65 23.8466 3.65 21V18C3.65 17.0033 3.65002 16.0992 3.65959 15.275H32.3404C32.35 16.0992 32.35 17.0033 32.35 18V21C32.35 23.8466 32.3486 25.9164 32.136 27.4969C31.926 29.0586 31.5205 30.0449 30.7826 30.7822L30.7822 30.7826C30.0449 31.5205 29.0586 31.926 27.4969 32.136C25.9164 32.3486 23.8466 32.35 21 32.35H15C12.1534 32.35 10.0836 32.3486 8.50314 32.136C6.94135 31.926 5.95513 31.5205 5.21782 30.7826ZM16.4292 17.86L16.4288 17.8598C16.1044 17.7257 15.7477 17.6908 15.4035 17.7595C15.0594 17.8282 14.7434 17.9972 14.4954 18.2454C14.4953 18.2454 14.4953 18.2455 14.4952 18.2456L12.2454 20.4954L12.2373 20.5035L12.2295 20.5119C11.9159 20.8484 11.7452 21.2934 11.7533 21.7532C11.7615 22.2131 11.9477 22.6518 12.2729 22.9771C12.5982 23.3023 13.0369 23.4885 13.4967 23.4967C13.6594 23.4995 13.8202 23.48 13.975 23.4398V25.5C13.975 25.9708 14.162 26.4222 14.4949 26.7551C14.8278 27.088 15.2792 27.275 15.75 27.275C16.2208 27.275 16.6722 27.088 17.0051 26.7551C17.338 26.4222 17.525 25.9708 17.525 25.5V19.5001C17.525 19.5 17.525 19.5 17.525 19.5C17.525 19.1489 17.4209 18.8057 17.2259 18.5138C17.0309 18.2219 16.7536 17.9943 16.4292 17.86ZM21 17.725C20.1314 17.725 19.2984 18.07 18.6842 18.6842C18.07 19.2984 17.725 20.1314 17.725 21V24C17.725 24.8686 18.07 25.7016 18.6842 26.3158C19.2984 26.93 20.1314 27.275 21 27.275C21.8686 27.275 22.7016 26.93 23.3158 26.3158C23.93 25.7016 24.275 24.8686 24.275 24V21C24.275 20.1314 23.93 19.2984 23.3158 18.6842C22.7016 18.07 21.8686 17.725 21 17.725Z" fill="#71B5E7" stroke="#0C7DD3" stroke-width="1.3"/>
</g>
</g>
</svg>
