<svg width="40" height="37" viewBox="0 0 40 37" fill="none" xmlns="http://www.w3.org/2000/svg">
<g clip-path="url(#clip0_3587_14680)">
<path d="M20.4998 31.843C27.6056 31.843 33.3668 26.0312 33.3668 18.8619C33.3668 11.6927 27.6056 5.88086 20.4998 5.88086C13.394 5.88086 7.63281 11.6927 7.63281 18.8619C7.63281 22.1258 8.82783 25.1114 10.8013 27.3924C10.6453 29.2765 10.1306 31.3423 9.56125 32.8926C9.43419 33.2376 9.68027 33.6233 10.0003 33.564C13.6288 32.8778 15.7856 31.8245 16.7233 31.2756C17.9552 31.6544 19.2249 31.8452 20.4998 31.843Z" fill="#078FF8"/>
<path d="M17.4722 13.1558H23.5272V16.7579L20.4997 18.8074L17.4722 16.7579V13.1558Z" fill="white"/>
<path d="M23.5273 25.3286H17.4723L17.4723 21.6037L20.4998 19.677L23.5273 21.6037L23.5273 25.3286Z" fill="white"/>
<rect x="19.6348" y="17.938" width="1.73001" height="2.60844" fill="white"/>
</g>
<path d="M19.265 0.182507C19.1217 0.189442 18.7372 0.217178 18.4087 0.244915C11.7189 0.848179 6.05661 4.97741 4.14473 10.6495C3.86511 11.4816 3.6589 12.3795 3.55404 13.2151L3.53307 13.3919L3.25695 13.4162C2.10353 13.5098 1.11089 14.1859 0.729907 15.1358C0.562137 15.5553 0.562137 15.6281 0.572622 20.215C0.586603 24.9926 0.569127 24.6251 0.824278 25.1382C1.13885 25.7692 1.72604 26.2442 2.50548 26.5042C2.9249 26.6429 3.32685 26.6914 3.92803 26.6741C4.39988 26.6637 4.44182 26.6568 4.69697 26.5493C4.97659 26.4279 5.17582 26.2546 5.30864 26.0188C5.36805 25.9044 5.37155 25.634 5.39252 19.8857C5.4065 15.5345 5.42398 13.7871 5.45194 13.5757C5.78049 11.2527 6.56342 9.42908 8.04539 7.55342C8.44734 7.04377 9.56581 5.93778 10.1425 5.4836C10.6284 5.09529 11.579 4.45389 12.0963 4.16266C15.0638 2.49155 18.7058 1.80161 22.2534 2.24192C27.685 2.91453 32.2567 6.19434 34.0603 10.7154C34.3923 11.5509 34.616 12.3795 34.7453 13.281C34.8152 13.7525 34.8152 13.9466 34.8187 20.4404C34.8257 26.3413 34.8187 27.1872 34.7663 27.7385C34.7034 28.4423 34.6125 29.108 34.4867 29.8326C34.4377 30.103 34.3993 30.3284 34.3993 30.3353C34.3993 30.3422 34.3399 30.3596 34.27 30.3734C33.8016 30.4601 33.2144 30.7999 32.823 31.2159C32.449 31.6112 32.2532 31.9648 32.1029 32.5091C32.0156 32.8246 32.0191 33.577 32.1064 33.9098C32.3336 34.7731 32.9383 35.4838 33.7492 35.8513C34.8257 36.3402 36.105 36.1218 36.9718 35.3036C37.4331 34.8736 37.7337 34.3189 37.8421 33.7052C37.9085 33.3204 37.9085 33.0812 37.8421 32.6998C37.7058 31.9267 37.2409 31.2125 36.5978 30.7895C36.465 30.6993 36.3566 30.6092 36.3566 30.5884C36.3566 30.5676 36.4021 30.266 36.4615 29.9227C36.6083 29.0456 36.6607 28.6087 36.7236 27.7732C36.8145 26.577 36.7935 26.688 36.9438 26.6637C37.8351 26.5389 38.3803 26.3101 38.8767 25.8559C39.1807 25.5785 39.4149 25.2284 39.5512 24.847L39.6596 24.5488L39.6701 20.1457C39.6806 15.2606 39.691 15.4895 39.4499 14.9798C39.0479 14.1165 38.0937 13.5098 36.9892 13.4092L36.7236 13.385L36.6677 12.9828C35.8288 7.13738 31.0823 2.2974 24.6302 0.712963C22.8931 0.283051 21.107 0.109699 19.265 0.182507Z" fill="#078FF8"/>
<defs>
<clipPath id="clip0_3587_14680">
<rect width="25.7339" height="29.6711" fill="white" transform="translate(7.63281 4.02637)"/>
</clipPath>
</defs>
</svg>
