<svg width="35" height="37" viewBox="0 0 35 37" fill="none" xmlns="http://www.w3.org/2000/svg">
<path d="M15.0211 26.7381C18.2082 26.7381 21.2648 25.4861 23.5184 23.2575C25.772 21.0289 27.038 18.0062 27.038 14.8545C27.038 11.7028 25.772 8.68014 23.5184 6.45153C21.2648 4.22292 18.2082 2.9709 15.0211 2.9709C11.8341 2.9709 8.77751 4.22292 6.5239 6.45153C4.27029 8.68014 3.00423 11.7028 3.00423 14.8545C3.00423 18.0062 4.27029 21.0289 6.5239 23.2575C8.77751 25.4861 11.8341 26.7381 15.0211 26.7381ZM15.0211 0C16.9937 0 18.947 0.384223 20.7695 1.13073C22.5919 1.87724 24.2478 2.97142 25.6427 4.35078C27.0375 5.73015 28.144 7.3677 28.8989 9.16993C29.6537 10.9722 30.0423 12.9038 30.0423 14.8545C30.0423 18.7942 28.4597 22.5725 25.6427 25.3582C22.8257 28.144 19.005 29.709 15.0211 29.709C6.71445 29.709 0 23.0245 0 14.8545C0 10.9148 1.58258 7.13654 4.39959 4.35078C7.2166 1.56502 11.0373 0 15.0211 0ZM15.7722 7.42725V15.2259L22.5317 19.192L21.4051 21.0191L13.519 16.34V7.42725H15.7722Z" fill="#078FF8"/>
<ellipse cx="24" cy="26.5" rx="11" ry="10.5" fill="white"/>
<path d="M31.0785 29.6302C30.5516 28.734 30.2718 27.4477 30.2718 25.9128C30.2718 24.5755 29.7346 23.293 28.7784 22.3474C27.8222 21.4018 26.5253 20.8706 25.173 20.8706C23.8207 20.8706 22.5239 21.4018 21.5676 22.3474C20.6114 23.293 20.0743 24.5755 20.0743 25.9128C20.0743 27.4483 19.7956 28.734 19.2688 29.6302C19.1613 29.813 19.1043 30.0206 19.1035 30.232C19.1028 30.4435 19.1583 30.6514 19.2645 30.835C19.3701 31.0186 19.5233 31.171 19.7083 31.2766C19.8933 31.3821 20.1035 31.4369 20.3171 31.4352H22.5132C22.5734 32.0917 22.8797 32.7022 23.3718 33.1467C23.864 33.5913 24.5065 33.8377 25.173 33.8377C25.8396 33.8377 26.482 33.5913 26.9742 33.1467C27.4664 32.7022 27.7726 32.0917 27.8329 31.4352H30.029C30.2423 31.4365 30.452 31.3816 30.6367 31.2761C30.8214 31.1706 30.9743 31.0183 31.0797 30.835C31.1864 30.6517 31.2424 30.4439 31.2422 30.2324C31.242 30.021 31.1855 29.8133 31.0785 29.6302ZM25.173 32.3957C24.8932 32.3957 24.6219 32.3001 24.4051 32.1251C24.1883 31.9501 24.0393 31.7064 23.9833 31.4352H26.3627C26.3068 31.7064 26.1578 31.9501 25.941 32.1251C25.7242 32.3001 25.4529 32.3957 25.173 32.3957ZM20.7213 29.9946C21.2585 28.9141 21.531 27.5419 21.531 25.9128C21.531 24.9576 21.9148 24.0415 22.5978 23.3661C23.2808 22.6907 24.2071 22.3112 25.173 22.3112C26.1389 22.3112 27.0653 22.6907 27.7483 23.3661C28.4313 24.0415 28.815 24.9576 28.815 25.9128C28.815 27.5413 29.0869 28.9141 29.6241 29.9946H20.7213Z" fill="#078FF8"/>
</svg>
