<svg width="37" height="15" viewBox="0 0 37 15" fill="none" xmlns="http://www.w3.org/2000/svg">
<path d="M18.4998 0.666504C21.6956 0.666504 24.8443 1.2935 27.9459 2.5475C31.0475 3.8015 33.803 5.68145 36.2123 8.18734C36.5373 8.504 36.6998 8.87345 36.6998 9.29567C36.6998 9.71789 36.5373 10.0873 36.2123 10.404L32.4748 13.9665C32.1769 14.2568 31.8313 14.4151 31.4381 14.4415C31.0448 14.4679 30.6862 14.3623 30.3623 14.1248L25.6498 10.6415C25.4331 10.4832 25.2706 10.2984 25.1623 10.0873C25.054 9.87623 24.9998 9.63873 24.9998 9.37484V4.86234C23.9706 4.54567 22.9144 4.29498 21.8311 4.11025C20.7477 3.92553 19.6373 3.83317 18.4998 3.83317C17.3623 3.83317 16.2519 3.92553 15.1686 4.11025C14.0852 4.29498 13.029 4.54567 11.9998 4.86234V9.37484C11.9998 9.63873 11.9456 9.87623 11.8373 10.0873C11.729 10.2984 11.5665 10.4832 11.3498 10.6415L6.6373 14.1248C6.3123 14.3623 5.95318 14.4679 5.55993 14.4415C5.16668 14.4151 4.82164 14.2568 4.52481 13.9665L0.787305 10.404C0.462305 10.0873 0.299805 9.71789 0.299805 9.29567C0.299805 8.87345 0.462305 8.504 0.787305 8.18734C3.17064 5.68039 5.9196 3.80045 9.03418 2.5475C12.1488 1.29456 15.304 0.667559 18.4998 0.666504Z" fill="#078FF8"/>
</svg>
