<svg width="36" height="36" viewBox="0 0 36 36" fill="none" xmlns="http://www.w3.org/2000/svg">
<g id="material-symbols:list">
<path id="Vector" d="M5 12.0012H5.00001V12C5.00001 11.7012 5.09578 11.4738 5.28556 11.2841C5.47528 11.0943 5.70175 10.9993 5.99883 11V11H6.00001C6.29882 11 6.52617 11.0958 6.71595 11.2856C6.90567 11.4753 7.00071 11.7018 7.00001 11.9988V12C7.00001 12.2988 6.90424 12.5262 6.71445 12.716C6.52473 12.9057 6.29826 13.0007 6.00118 13H6.00001C5.70119 13 5.47384 12.9042 5.28406 12.7145C5.09434 12.5247 4.9993 12.2983 5 12.0012ZM5.00001 18.0012V18C5.00001 17.7012 5.09578 17.4738 5.28556 17.2841L4.9337 16.9322L5.28556 17.2841C5.47528 17.0943 5.70175 16.9993 5.99883 17H6.00001C6.29882 17 6.52617 17.0958 6.71595 17.2856C6.90567 17.4753 7.00071 17.7018 7.00001 17.9988V18C7.00001 18.2988 6.90424 18.5262 6.71445 18.716C6.52473 18.9057 6.29826 19.0007 6.00118 19H6.00001C5.70119 19 5.47384 18.9042 5.28406 18.7145C5.09434 18.5247 4.9993 18.2983 5.00001 18.0012ZM5.00001 24.0012V24C5.00001 23.7012 5.09578 23.4738 5.28556 23.2841C5.47528 23.0943 5.70175 22.9993 5.99883 23H6.00001C6.29882 23 6.52617 23.0958 6.71595 23.2856C6.90567 23.4753 7.00071 23.7018 7.00001 23.9988V24C7.00001 24.2988 6.90424 24.5262 6.71445 24.716C6.52473 24.9057 6.29826 25.0007 6.00118 25H6.00001C5.70119 25 5.47384 24.9042 5.28406 24.7145C5.09434 24.5247 4.9993 24.2983 5.00001 24.0012ZM11 11H31V13H11V11ZM11 17H31V19H11V17ZM11 23H31V25H11V23Z" fill="#71B5E7" stroke="#0C7DD3"/>
</g>
</svg>
