<svg width="33" height="33" viewBox="0 0 33 33" fill="none" xmlns="http://www.w3.org/2000/svg">
<path d="M31.2502 16V17H29.2502V16C29.2502 12.4859 27.8542 9.11571 25.3694 6.63085C22.8846 4.14609 19.5146 2.75013 16.0006 2.75002C13.8098 2.74642 11.6527 3.28869 9.72402 4.32784L9.72381 4.32796C7.69261 5.42363 5.98101 7.02836 4.75683 8.9848L4.27801 9.75002H5.18069H10.2502V11.75H0.750188V2.25002H2.75019V6.75102V8.28992L3.6547 7.0449C5.00424 5.18732 6.75408 3.65686 8.77482 2.5667C10.9949 1.37073 13.4778 0.746387 15.9995 0.750016H16.0002C24.4225 0.750016 31.2502 7.57766 31.2502 16ZM15.0002 16.4139V7.50002H17.0002V15.379V15.5861L17.1466 15.7326L19.2891 17.875L17.8752 19.2889L15.0002 16.4139ZM0.728982 16.6101L2.71792 16.4012L2.8219 17.396L2.82198 17.3968C3.16729 20.651 4.70456 23.6625 7.13768 25.8509C9.5708 28.0394 12.7277 29.2502 16.0002 29.25H17.0002V31.25H16.0002C8.11848 31.25 1.63612 25.2737 0.832973 17.604C0.832972 17.604 0.83297 17.604 0.832969 17.6039L0.728982 16.6101ZM24.7502 20.7175V19.5075H26.7502V20.7175V21.0901L27.1073 21.1966C27.8308 21.4125 28.482 21.7938 29.015 22.2997L29.2856 22.5565L29.6089 22.3702L30.6596 21.7646L31.6596 23.4957L30.6075 24.1036L30.2852 24.2898L30.3712 24.6521C30.5433 25.3765 30.5433 26.1311 30.3712 26.8554L30.2851 27.218L30.6079 27.4041L31.6596 28.0107L30.6595 29.7427L29.6045 29.1344L29.2818 28.9483L29.0111 29.2042C28.4714 29.7147 27.8193 30.0911 27.1074 30.3033L26.7502 30.4098V30.7825V32H24.7502V30.7825V30.4097L24.3928 30.3033C23.6804 30.0912 23.0278 29.7147 22.4876 29.2041L22.217 28.9484L21.8944 29.1344L20.8393 29.7427L19.8391 28.0104L20.8913 27.4024L21.2138 27.2161L21.1276 26.8538C20.9555 26.13 20.9555 25.376 21.1276 24.6522L21.2139 24.2896L20.891 24.1034L19.8393 23.4968L20.8395 21.7645L21.8917 22.3703L22.2147 22.5563L22.4851 22.2999C23.0257 21.7875 23.6794 21.4096 24.3931 21.1966L24.7502 21.0901V20.7175ZM25.7502 23C25.0208 23 24.3214 23.2897 23.8056 23.8055C23.2899 24.3212 23.0002 25.0207 23.0002 25.75C23.0002 26.4794 23.2899 27.1788 23.8056 27.6946C24.3214 28.2103 25.0208 28.5 25.7502 28.5C26.4795 28.5 27.179 28.2103 27.6947 27.6946C28.2105 27.1788 28.5002 26.4794 28.5002 25.75C28.5002 25.0207 28.2105 24.3212 27.6947 23.8055C27.179 23.2897 26.4795 23 25.7502 23Z" fill="#67AEE4" stroke="#0C7DD3"/>
</svg>
