<svg width="30" height="31" viewBox="0 0 30 31" fill="none" xmlns="http://www.w3.org/2000/svg">
<path d="M24.9998 14.2072H27.4998C27.4998 7.58095 22.6586 2.5835 16.2373 2.5835V5.16683C21.3148 5.16683 24.9998 8.9682 24.9998 14.2072Z" fill="#078FF8"/>
<path d="M16.2499 10.3332C18.8786 10.3332 19.9999 11.4919 19.9999 14.2082H22.4999C22.4999 10.0426 20.2811 7.7499 16.2499 7.7499V10.3332ZM20.5274 17.3638C20.2872 17.1382 19.9715 17.0179 19.6471 17.0282C19.3227 17.0386 19.0149 17.1788 18.7886 17.4193L15.7974 20.5981C15.0774 20.456 13.6299 19.9897 12.1399 18.4539C10.6499 16.913 10.1986 15.4134 10.0649 14.6745L13.1386 11.5823C13.3716 11.3486 13.5075 11.0305 13.5176 10.6952C13.5276 10.3598 13.411 10.0336 13.1924 9.78557L8.57361 4.53753C8.35492 4.2887 8.05096 4.13776 7.72631 4.11678C7.40165 4.0958 7.08186 4.20642 6.83486 4.42515L4.12236 6.82894C3.90625 7.05307 3.77726 7.35136 3.75986 7.66723C3.74111 7.99015 3.38361 15.6394 9.12361 21.5733C14.1311 26.7464 20.4036 27.1249 22.1311 27.1249C22.3836 27.1249 22.5386 27.1171 22.5799 27.1146C22.8855 27.0969 23.174 26.963 23.3899 26.7387L25.7149 23.9345C25.9267 23.6794 26.034 23.3491 26.0139 23.0136C25.9938 22.6781 25.848 22.3639 25.6074 22.1378L20.5274 17.3638Z" fill="#078FF8"/>
</svg>
